<svg xmlns="http://www.w3.org/2000/svg" width="512" height="512" viewBox="0 0 512 512">
  <defs>
    <linearGradient id="bg" x1="0" y1="0" x2="1" y2="1">
      <stop offset="0" stop-color="#0b0f1a"/>
      <stop offset="1" stop-color="#15122a"/>
    </linearGradient>
    <linearGradient id="g" x1="0" y1="0" x2="1" y2="1">
      <stop offset="0" stop-color="#5ae1ff"/>
      <stop offset="1" stop-color="#c36bff"/>
    </linearGradient>
    <filter id="s" x="-20%" y="-20%" width="140%" height="140%">
      <feDropShadow dx="0" dy="10" stdDeviation="12" flood-color="#000" flood-opacity="0.35"/>
    </filter>
  </defs>
  <rect width="512" height="512" rx="96" fill="url(#bg)"/>
  <g filter="url(#s)">
    <path d="M256 70c56 40 112 40 168 40v160c0 110-72 180-168 214C160 450 88 380 88 270V110c56 0 112 0 168-40z" fill="#0f1630" stroke="#6f7cff" stroke-opacity="0.35" stroke-width="4"/>
    <path d="M256 138c34 46 56 96 56 146 0 58-26 96-56 120-30-24-56-62-56-120 0-50 22-100 56-146z" fill="url(#g)" opacity="0.95"/>
    <path d="M256 176c18 32 30 68 30 98 0 30-12 54-30 74-18-20-30-44-30-74 0-30 12-66 30-98z" fill="#e7f0ff" opacity="0.9"/>
    <circle cx="334" cy="176" r="6" fill="#fff" opacity="0.8"/>
    <circle cx="368" cy="220" r="5" fill="#fff" opacity="0.7"/>
    <circle cx="158" cy="214" r="5" fill="#fff" opacity="0.65"/>
  </g>
  <text x="256" y="470" text-anchor="middle" font-size="34" font-family="system-ui, -apple-system, Segoe UI, Roboto, Arial" fill="#e7f0ff" opacity="0.9">Битва районов</text>
</svg>