<svg xmlns="http://www.w3.org/2000/svg" width="256" height="256" viewBox="0 0 256 256">
  <defs>
    <linearGradient id="g" x1="0" y1="0" x2="1" y2="1">
      <stop offset="0" stop-color="#1b2b5a"/>
      <stop offset="1" stop-color="#4b1b5a"/>
    </linearGradient>
    <filter id="s" x="-20%" y="-20%" width="140%" height="140%">
      <feDropShadow dx="0" dy="6" stdDeviation="8" flood-color="#000" flood-opacity="0.35"/>
    </filter>
  </defs>
  <rect x="0" y="0" width="256" height="256" rx="48" fill="#0b0f1a"/>
  <path filter="url(#s)" d="M128 28c28 20 56 20 84 20v78c0 54-36 88-84 104C80 214 44 180 44 126V48c28 0 56 0 84-20z" fill="url(#g)" stroke="#9aa7ff" stroke-opacity="0.35" stroke-width="2"/>
  <path d="M128 64c16 22 26 46 26 70 0 28-12 46-26 58-14-12-26-30-26-58 0-24 10-48 26-70z" fill="#e7f0ff" fill-opacity="0.9"/>
  <path d="M128 76c10 18 16 38 16 56 0 18-6 32-16 42-10-10-16-24-16-42 0-18 6-38 16-56z" fill="#a6b9ff" fill-opacity="0.9"/>
  <circle cx="164" cy="84" r="4" fill="#ffffff" opacity="0.85"/>
  <circle cx="184" cy="108" r="3" fill="#ffffff" opacity="0.75"/>
  <circle cx="76" cy="104" r="3" fill="#ffffff" opacity="0.7"/>
  <circle cx="92" cy="80" r="2.5" fill="#ffffff" opacity="0.6"/>
  <text x="128" y="220" text-anchor="middle" font-size="28" font-family="system-ui, -apple-system, Segoe UI, Roboto, Arial" fill="#e7f0ff" opacity="0.92">5-й мкр</text>
</svg>